G04 DipTrace 3.1.0.1*
G04 Top.gtl*
%MOIN*%
G04 #@! TF.FileFunction,Copper,L1,Top*
G04 #@! TF.Part,Single*
G04 #@! TA.AperFunction,Conductor*
%ADD14C,0.012992*%
%ADD16R,0.070866X0.015748*%
G04 #@! TA.AperFunction,ComponentPad*
%ADD17R,0.066929X0.066929*%
%ADD18C,0.066929*%
%ADD19R,0.051181X0.059055*%
%ADD20R,0.059055X0.051181*%
G04 #@! TA.AperFunction,ViaPad*
%ADD21C,0.04*%
%FSLAX26Y26*%
G04*
G70*
G90*
G75*
G01*
G04 Top*
%LPD*%
X944000Y1275251D2*
D14*
Y1194000D1*
Y1144196D1*
X875054Y1075249D1*
Y1000713D1*
X818648Y944307D1*
Y888063D1*
X787402Y856816D1*
X709178D1*
X706500Y854138D1*
X622240D1*
X593672Y825570D1*
X475568D1*
X462749Y812751D1*
X869197Y1275251D2*
Y1194000D1*
Y1275251D2*
X781697D1*
X781500Y1275054D1*
X706500Y828547D2*
X634146D1*
X612420Y806822D1*
Y775575D1*
X556176Y719331D1*
X469329D1*
X462749Y712751D1*
X869197Y1194000D2*
Y1144840D1*
X862394Y1138037D1*
X706500Y879728D2*
X589508D1*
X574924Y894312D1*
X543677D1*
X524929Y913060D1*
X463059D1*
X462749Y912751D1*
X781500Y1200251D2*
Y1094000D1*
X800251Y1075249D1*
Y963406D1*
X793651Y956806D1*
Y900562D1*
X774903Y881814D1*
X708585D1*
X706500Y879728D1*
Y956500D2*
X681500D1*
Y1175251D1*
X637751Y1219000D1*
X468999D1*
X462749Y1212751D1*
X706500Y930909D2*
X644589D1*
X625249Y950249D1*
Y1050251D1*
X581500Y1094000D1*
X481500D1*
X462749Y1112751D1*
X706500Y905319D2*
X626432D1*
X587751Y944000D1*
Y1006499D1*
X569000Y1025249D1*
X475248D1*
X462749Y1012751D1*
X706500Y777366D2*
Y643999D1*
X662751Y600249D1*
X550248D1*
X462749Y512751D1*
X706500Y802957D2*
X646707D1*
X637751Y794000D1*
Y681501D1*
X594000Y637751D1*
X487749D1*
X462749Y612751D1*
X934854Y777366D2*
Y571896D1*
X994000Y512751D1*
X1162749D1*
Y612751D2*
X1137751D1*
X1062751Y687751D1*
Y750249D1*
X1012751Y800249D1*
X937554D1*
X934846Y802957D1*
X1162749Y712751D2*
Y719000D1*
X1056500Y825249D1*
X938144D1*
X934846Y828547D1*
X1162749Y812751D2*
X1125251Y850249D1*
X987751D1*
X981500Y856500D1*
X937209D1*
X934846Y854138D1*
X1162749Y912751D2*
X1100251D1*
X1081500Y894000D1*
X1044000D1*
X1037751Y887751D1*
X994001D1*
X987751Y881500D1*
X936618D1*
X934846Y879728D1*
Y905319D2*
X980319D1*
X987751Y912751D1*
X1006501D1*
X1019000Y925249D1*
X1056500D1*
X1081500Y950249D1*
X1100248D1*
X1162749Y1012751D1*
X934846Y930909D2*
X980909D1*
X994000Y944000D1*
X1000249D1*
X1031500Y975251D1*
Y981501D1*
X1162749Y1112751D1*
X934846Y956500D2*
X944000D1*
X1006500Y1019000D1*
Y1056501D1*
X1162749Y1212751D1*
D21*
X862394Y1138037D3*
D16*
X706500Y956500D3*
Y930909D3*
Y905319D3*
Y879728D3*
Y854138D3*
Y828547D3*
Y802957D3*
Y777366D3*
X934854D3*
X934846Y802957D3*
Y828547D3*
Y854138D3*
Y879728D3*
Y905319D3*
Y930909D3*
Y956500D3*
D17*
X462749Y1212751D3*
D18*
Y1112751D3*
Y1012751D3*
Y912751D3*
Y812751D3*
Y712751D3*
Y612751D3*
Y512751D3*
D17*
X1162749Y1212751D3*
D18*
Y1112751D3*
Y1012751D3*
Y912751D3*
Y812751D3*
Y712751D3*
Y612751D3*
Y512751D3*
D19*
X944000Y1275251D3*
X869197D3*
X944000Y1194000D3*
X869197D3*
X800251Y1075249D3*
X875054D3*
D20*
X781500Y1200251D3*
Y1275054D3*
M02*
