G04 DipTrace 3.1.0.1*
G04 TopSilk.gto*
%MOIN*%
G04 #@! TF.FileFunction,Legend,Top*
G04 #@! TF.Part,Single*
%ADD10C,0.009843*%
%ADD37C,0.00772*%
%FSLAX26Y26*%
G04*
G70*
G90*
G75*
G01*
G04 TopSilk*
%LPD*%
X757691Y973233D2*
D10*
Y760633D1*
X883663Y973233D2*
Y760633D1*
X757691D2*
X883663D1*
X757691Y973233D2*
X800988D1*
X840366D2*
X883663D1*
X800988D2*
G03X840366Y973233I19689J23D01*
G01*
X512751Y1262714D2*
X412749D1*
Y462787D1*
X512751D1*
Y1262714D1*
X1212751D2*
X1112749D1*
Y462787D1*
X1212751D1*
Y1262714D1*
X985360Y1300822D2*
Y1249680D1*
Y1219571D2*
Y1168429D1*
X807071Y1158891D2*
X755929D1*
X790214Y1046456D2*
D37*
Y1010586D1*
X792591Y1003401D1*
X797399Y998648D1*
X804584Y996216D1*
X809337D1*
X816522Y998648D1*
X821331Y1003401D1*
X823707Y1010586D1*
Y1046456D1*
X839147Y1036839D2*
X843955Y1039271D1*
X851140Y1046401D1*
Y996216D1*
X488459Y1354871D2*
Y1316625D1*
X486083Y1309440D1*
X483651Y1307063D1*
X478898Y1304631D1*
X474089D1*
X469336Y1307063D1*
X466960Y1309440D1*
X464528Y1316625D1*
Y1321378D1*
X503899Y1345254D2*
X508707Y1347686D1*
X515892Y1354816D1*
Y1304631D1*
X1177710Y1354871D2*
Y1316625D1*
X1175333Y1309440D1*
X1172901Y1307063D1*
X1168148Y1304631D1*
X1163339D1*
X1158586Y1307063D1*
X1156210Y1309440D1*
X1153778Y1316625D1*
Y1321378D1*
X1195581Y1342878D2*
Y1345254D1*
X1197957Y1350063D1*
X1200334Y1352440D1*
X1205142Y1354816D1*
X1214704D1*
X1219457Y1352440D1*
X1221834Y1350063D1*
X1224266Y1345254D1*
Y1340501D1*
X1221834Y1335693D1*
X1217080Y1328563D1*
X1193149Y1304631D1*
X1226642D1*
X918702Y1366063D2*
X916325Y1370816D1*
X911516Y1375625D1*
X906763Y1378001D1*
X897202D1*
X892393Y1375625D1*
X887640Y1370816D1*
X885208Y1366063D1*
X882832Y1358878D1*
Y1346885D1*
X885208Y1339755D1*
X887640Y1334946D1*
X892393Y1330193D1*
X897202Y1327761D1*
X906763D1*
X911516Y1330193D1*
X916325Y1334946D1*
X918702Y1339755D1*
X934141Y1368384D2*
X938949Y1370816D1*
X946134Y1377946D1*
Y1327761D1*
X907952Y1284812D2*
X905575Y1289566D1*
X900767Y1294374D1*
X896013Y1296751D1*
X886452D1*
X881643Y1294374D1*
X876890Y1289566D1*
X874458Y1284812D1*
X872082Y1277627D1*
Y1265634D1*
X874458Y1258504D1*
X876890Y1253696D1*
X881643Y1248942D1*
X886452Y1246511D1*
X896013D1*
X900767Y1248942D1*
X905575Y1253696D1*
X907952Y1258504D1*
X925823Y1284757D2*
Y1287134D1*
X928199Y1291942D1*
X930576Y1294319D1*
X935384Y1296695D1*
X944946D1*
X949699Y1294319D1*
X952076Y1291942D1*
X954508Y1287134D1*
Y1282381D1*
X952076Y1277572D1*
X947323Y1270442D1*
X923391Y1246511D1*
X956884D1*
X807189Y1154068D2*
X828689D1*
X835874Y1156500D1*
X838306Y1158877D1*
X840683Y1163630D1*
Y1168438D1*
X838306Y1173192D1*
X835874Y1175623D1*
X828689Y1178000D1*
X807189D1*
Y1127760D1*
X823936Y1154068D2*
X840683Y1127760D1*
X856122Y1168383D2*
X860930Y1170815D1*
X868115Y1177945D1*
Y1127760D1*
X690688Y1222048D2*
X685934Y1219672D1*
X681126Y1214863D1*
X678749Y1210110D1*
Y1200548D1*
X681126Y1195740D1*
X685934Y1190987D1*
X690688Y1188555D1*
X697873Y1186178D1*
X709866D1*
X716996Y1188555D1*
X721804Y1190987D1*
X726558Y1195740D1*
X728989Y1200548D1*
Y1210110D1*
X726558Y1214863D1*
X721804Y1219672D1*
X716996Y1222048D1*
X728989Y1261419D2*
X678805D1*
X712243Y1237487D1*
Y1273357D1*
M02*
